<?xml version="1.0" encoding="UTF-8"?>
<!DOCTYPE svg PUBLIC "-//W3C//DTD SVG 1.1//EN" "http://www.w3.org/Graphics/SVG/1.1/DTD/svg11.dtd">
<!-- Creator: CorelDRAW 2021.5 -->
<svg xmlns="http://www.w3.org/2000/svg" xml:space="preserve" width="197.429mm" height="198.031mm" version="1.1" style="shape-rendering:geometricPrecision; text-rendering:geometricPrecision; image-rendering:optimizeQuality; fill-rule:evenodd; clip-rule:evenodd"
viewBox="0 0 19742.9 19803.1"
 xmlns:xlink="http://www.w3.org/1999/xlink"
 xmlns:xodm="http://www.corel.com/coreldraw/odm/2003">
 <defs>
  <style type="text/css">
   <![CDATA[
    .fil0 {fill:url(#id1)}
    .fil1 {fill:url(#id2)}
   ]]>
  </style>
   <clipPath id="id0">
    <path d="M7027.34 16837.21c-96.67,0 -193.34,-2.41 -294.03,-7.26 -3540.3,-145.17 -6403.96,-2910.85 -6693.94,-6421.79 -4.01,-67.75 -4.01,-135.49 -8.04,-205.68 205.38,3598.06 3105.31,6453.26 6706.02,6603.28 56.37,2.41 108.73,2.41 165.12,4.84l8.08 0c40.24,0 80.52,0 120.81,0l20.16 0c28.18,0 56.37,0 84.57,0 24.16,0 52.36,0 80.53,-2.43 28.2,0 52.35,0 76.55,-2.41 32.19,0 60.4,-2.43 88.6,-2.43 28.19,-2.41 52.36,-4.82 80.55,-4.82 28.2,-2.43 52.36,-4.84 80.56,-4.84 28.17,-2.44 52.36,-4.85 80.53,-7.28 28.2,-2.41 56.39,-4.82 84.59,-7.25 24.15,-2.41 48.35,-4.84 76.51,-7.26 28.21,-4.84 56.39,-7.25 84.6,-9.68 24.15,-4.84 52.36,-7.26 76.51,-9.67 28.21,-4.84 56.41,-7.27 80.56,-12.11 28.21,-4.83 56.39,-7.26 80.57,-12.1 28.2,-4.82 52.36,-7.25 80.56,-12.1 24.15,-4.84 52.36,-9.66 76.51,-14.5 28.21,-4.85 56.39,-9.69 80.57,-14.53 28.18,-4.84 52.35,-9.67 80.54,-14.51 24.15,-7.27 48.31,-12.09 76.51,-16.94 24.17,-4.84 52.36,-12.09 76.53,-16.94 28.19,-7.25 52.36,-12.09 80.55,-19.37 24.17,-4.82 52.35,-12.09 76.53,-16.92 24.15,-7.27 52.36,-14.52 76.51,-21.78 24.19,-4.84 48.36,-12.09 72.52,-19.37 28.2,-7.25 56.39,-14.5 84.59,-24.19 24.16,-4.84 48.33,-12.1 68.45,-19.35 28.19,-7.25 56.39,-16.94 84.58,-24.19 24.17,-7.28 44.31,-14.53 68.48,-24.21 28.19,-7.26 52.36,-16.92 80.57,-24.2 20.1,-9.66 44.27,-16.94 68.46,-24.19 28.17,-9.69 56.35,-19.35 80.53,-29.04 24.19,-9.68 44.31,-16.93 68.46,-26.62 28.21,-9.66 52.36,-19.35 80.57,-29.03 20.16,-9.67 44.31,-16.94 64.43,-26.61 28.21,-12.1 56.41,-21.78 80.57,-33.88 24.15,-9.68 44.31,-16.94 68.48,-26.62 24.14,-12.1 52.34,-24.19 76.5,-33.88 24.17,-9.66 44.33,-19.35 64.45,-29.03 28.19,-12.1 52.36,-24.2 76.51,-36.29 24.17,-9.69 44.3,-21.78 68.47,-31.45 24.15,-12.1 48.34,-24.21 76.51,-36.31 20.16,-12.09 40.28,-21.76 60.44,-33.88 28.19,-12.09 56.39,-29.03 84.56,-43.54 20.16,-9.68 36.27,-16.94 56.39,-26.62 28.18,-16.94 52.36,-31.45 80.54,-45.98 20.16,-12.09 36.25,-21.76 56.41,-31.44 28.21,-14.53 56.39,-31.47 80.57,-48.41 20.12,-9.66 36.23,-19.35 52.35,-29.03 32.2,-19.35 64.44,-38.7 96.64,-58.07 12.11,-7.26 24.19,-14.51 36.27,-24.2 132.92,-82.26 261.81,-169.37 390.66,-261.31 12.09,-9.69 20.16,-16.94 32.24,-24.2 32.21,-24.21 60.4,-45.97 92.64,-70.18 12.09,-9.67 24.17,-16.94 36.24,-26.61 28.21,-24.19 60.41,-45.97 88.59,-70.17 12.08,-9.68 24.18,-19.37 36.25,-26.62 28.21,-24.19 56.39,-48.38 84.6,-72.6 12.07,-9.66 28.2,-21.76 40.28,-31.44 24.15,-24.2 52.36,-45.98 76.51,-67.76 16.13,-14.51 32.24,-29.03 48.33,-41.13 24.19,-21.78 48.34,-41.13 68.46,-62.91 16.11,-14.51 32.24,-29.04 48.35,-43.55 24.17,-21.78 44.29,-41.15 68.49,-62.91 12.07,-14.53 28.16,-29.04 44.27,-43.56 20.16,-21.78 44.34,-43.55 68.49,-65.33 12.08,-14.52 28.2,-29.03 40.28,-43.56 24.15,-21.76 44.31,-45.97 68.47,-67.74 12.07,-14.52 28.2,-29.05 40.28,-45.97 24.17,-21.78 44.27,-43.56 64.43,-67.76 16.09,-14.52 28.21,-31.46 44.3,-48.4 20.16,-21.76 40.26,-45.97 60.42,-67.74 16.09,-16.94 28.21,-31.46 44.29,-48.4 20.17,-24.19 40.29,-45.98 56.4,-70.17 16.12,-16.94 32.23,-33.88 44.31,-53.23 20.12,-21.78 36.23,-43.56 56.39,-65.32 16.09,-19.37 28.17,-36.31 44.29,-55.66 16.11,-24.19 36.23,-45.97 52.36,-70.17 16.11,-16.94 28.19,-33.87 40.26,-53.24 20.16,-24.2 36.25,-48.39 56.41,-72.58 12.08,-16.94 24.16,-36.29 36.23,-53.23 20.16,-24.21 36.25,-48.41 52.36,-72.6 16.13,-19.35 28.21,-38.72 40.28,-60.48 16.13,-21.78 32.24,-45.97 48.33,-67.76l40.28 -62.91c16.11,-21.78 32.24,-45.97 44.32,-70.17 16.1,-21.78 28.2,-41.13 40.28,-60.5 16.11,-24.19 28.2,-48.38 44.31,-75.01 12.08,-19.35 24.15,-41.13 36.25,-60.48 16.11,-26.62 28.19,-50.82 44.3,-75.01 12.07,-21.78 24.17,-41.13 36.24,-62.91 12.08,-24.19 28.19,-50.82 40.29,-75.01 12.07,-21.78 24.15,-43.56 32.19,-62.91 16.11,-26.63 28.19,-53.23 40.29,-79.86 12.07,-19.35 24.15,-41.13 32.23,-60.48 16.11,-26.62 28.19,-53.25 40.28,-79.85 12.08,-21.78 20.11,-43.56 32.2,-65.34 12.08,-26.61 24.16,-50.8 36.27,-77.42 8.05,-21.79 20.12,-43.57 28.17,-67.76 12.07,-26.6 24.19,-53.23 36.27,-79.85 8.04,-21.76 20.12,-43.54 28.2,-65.33 12.08,-26.62 20.12,-55.66 32.2,-82.26 8.04,-21.78 20.16,-45.97 28.2,-67.76 8.05,-26.62 20.13,-53.22 32.2,-82.26 8.09,-21.78 16.11,-43.56 24.2,-67.75 8.04,-26.63 20.12,-55.66 28.16,-84.7 8.08,-21.76 16.11,-43.54 24.19,-67.73 12.08,-29.06 20.12,-58.09 28.17,-87.13 8.08,-21.76 16.11,-43.54 24.19,-65.32 8.05,-29.04 16.09,-58.07 24.18,-87.11 8.02,-24.19 16.1,-45.97 20.12,-70.17 8.06,-29.03 16.1,-58.07 24.17,-87.1 8.06,-24.2 12.08,-45.98 20.12,-67.76 8.06,-31.46 16.13,-65.32 24.17,-99.2 4.04,-19.37 12.08,-38.72 16.13,-58.07 4.03,-31.47 12.06,-60.5 20.12,-91.95 4.02,-24.19 8.07,-48.4 16.11,-72.6 8.07,-31.44 12.08,-65.32 20.16,-99.2 3.99,-19.35 8.03,-38.72 12.08,-58.07 4.03,-36.29 12.08,-70.17 16.11,-106.48 4.01,-19.35 8.04,-38.7 12.07,-58.07 8.05,-55.64 16.09,-108.88 24.18,-164.52 -475.26,3481.9 -3455.71,6056.41 -6939.61,6056.41zm-1272.75 -7012.18l0 0c-4.01,-116.15 0,-227.44 4.04,-341.17l0 -2.43c4.03,-116.15 12.07,-232.29 24.15,-348.43l0 -4.84c8.08,-113.73 24.17,-227.44 40.28,-341.17l0 -4.84 4.05 -31.45c-44.33,309.7 -68.48,624.27 -72.52,946.09l0 43.54c0,26.63 0,55.66 0,84.7zm92.63 -1205l0 0 0 -4.84 0 -4.84 4.05 -2.41 -4.05 12.09z"/>
   </clipPath>
  <linearGradient id="id1" gradientUnits="userSpaceOnUse" x1="4240.32" y1="13320.04" x2="17316.4" y2="1942.39">
   <stop offset="0" style="stop-opacity:1; stop-color:#323232"/>
   <stop offset="1" style="stop-opacity:1; stop-color:#7C7B7B"/>
  </linearGradient>
  <linearGradient id="id2" gradientUnits="userSpaceOnUse" x1="11677.53" y1="13505.19" x2="4610.84" y2="4910.63">
   <stop offset="0" style="stop-opacity:1; stop-color:#FFDC2D"/>
   <stop offset="1" style="stop-opacity:1; stop-color:#E95522"/>
  </linearGradient>
 </defs>
 <g id="Слой_x0020_1">
  <metadata id="CorelCorpID_0Corel-Layer"/>
  <path class="fil0" d="M6657.42 16842.76l0 -1.62 -30.24 0c-54.04,-2.87 -107.9,-6.35 -161.58,-10.38l0 -5.61 -72.6 0c-34.45,-3.01 -68.82,-6.49 -103.16,-9.93l0 -6.02 -59.65 0c-38.82,-4.27 -77.48,-9.02 -116.14,-13.92l0 -2.07 -16.56 0c-37.22,-4.81 -74.24,-9.89 -111.26,-15.22l0 -0.77 -5.26 0c-24.9,-3.64 -49.83,-7.22 -74.63,-11.11l0 -4.88 -32.2 0c-21.29,-3.44 -42.44,-7.44 -63.66,-11.05l0 -4.94 -28.64 0 -51.28 -8.88 0 -7.08 -37.67 0c-19.49,-3.67 -38.84,-7.7 -58.21,-11.5l0 -4.49 -22.81 0c-19.01,-3.79 -38.14,-7.29 -57.12,-11.28l0 -4.71 -21.31 0c-19.58,-4.17 -39.07,-8.69 -58.58,-13l0 -2.99 -13.46 0c-43.62,-9.78 -87.05,-19.92 -130.35,-30.47l0 -1.47 -5.85 0c-19.35,-4.74 -38.76,-9.37 -58.07,-14.31l0 -1.68 -6.82 0 -41.11 -10.55 0 -5.44 -20.01 0 -43.92 -11.9 0 -4.09 -14.98 0 -32.99 -8.95 0 -6.98 -25.71 0c-12.77,-3.63 -25.44,-7.57 -38.21,-11.28l0 -4.71 -15.83 0 -32.1 -9.52 0 -6.47 -21.78 0c-13.99,-4.21 -28.11,-8.2 -42.1,-12.51l0 -3.48 -11.46 0 -36.53 -11.78 0 -4.17 -12.95 0c-76.11,-24.23 -151.73,-49.51 -226.72,-76.23l0 -3.68 -10.46 0 -37.51 -13.58 0 -2.41 -6.37 0 -25.56 -9.55 0 -6.44 -17.11 0 -30.82 -11.5 0 -4.49 -11.91 0 -36.08 -13.5 0 -2.43 -6.18 0 -25.74 -10.3 0 -5.69 -14.23 0 -33.74 -13.5 0 -2.49 -6.2 0 -25.72 -10.3 0 -5.69 -14.19 0 -33.78 -13.78 0 -2.23 -5.22 0c-73.52,-30.62 -146.28,-62.74 -218.48,-95.8l0 -0.04 -0.14 0 -31.82 -14.49 0 -1.5 -3.28 0 -28.72 -13.19 0 -2.8 -5.85 0 -26.07 -12.59 0 -3.4 -7.04 0 -24.96 -12.06 0 -3.89 -8.01 0 -23.92 -11.55 0 -4.44 -9.21 0 -22.75 -11.01 0 -4.99 -10.35 0 -21.59 -11 0 -4.99 -9.76 0 -22.24 -11.36 0 -4.57 -8.97 0 -22.95 -11.74 0 -4.25 -8.28 0 -23.72 -12.09 0 -3.9 -7.57 0 -24.39 -12.65 0 -3.34 -6.2 0 -25.74 -13.91 0 -2.08 -3.83 0 -28.17 -15.22 0 -0.73 -1.32 0c-47.84,-25.87 -95.33,-52.28 -142.47,-79.22l0 -0.69 -1.21 0c-15.55,-8.87 -31.23,-17.61 -46.72,-26.62l0 -5.36 -9.33 0 -22.67 -13.36 0 -2.63 -4.35 0 -43.54 -26.17 0 -5.77 -9.63 0 -22.34 -13.4 0 -2.59 -4.24 0 -43.73 -26.45 0 -5.47 -8.63 0 -23.29 -14.73 0 -1.26 -2.03 0 -13.98 -8.84 0 -7.15 -11.32 0 -20.64 -13.05 0 -2.94 -4.66 0c-14.41,-9.19 -28.96,-18.09 -43.27,-27.36l0 -4.58 -6.9 0c-62.38,-40.54 -123.83,-82.34 -184.86,-124.8l0 -3.08 -4.43 0 -43.54 -30.34 0 -1.58 -2.25 0c-20.66,-14.65 -41.18,-29.49 -61.63,-44.4l0 -3.54 -4.83 0 -43.1 -31.52 0 -0.46 -0.6 0 -15.39 -11.22 0 -4.77 -6.49 0 -41.44 -31.21 0 -0.73 -0.95 0 -15.06 -11.54 0 -4.45 -5.78 0c-19.45,-14.8 -38.89,-29.57 -58.15,-44.57l0 -3.36 -4.36 0c-20.01,-15.57 -39.75,-31.42 -59.52,-47.24l0 -0.73 -0.93 0c-64.51,-51.45 -128.25,-103.81 -190.89,-157.49l0 -2.31 -2.71 0 -13.2 -11.41 0 -4.54 -5.2 0 -10.81 -9.51 0 -6.48 -7.39 0c-24.27,-21.15 -48.51,-42.3 -72.5,-63.78l0 -0.12 -0.16 0 -15.83 -13.96 0 -2.03 -2.18 0 -13.81 -12.69 0 -3.3 -3.6 0 -12.35 -11.39 0 -4.6 -4.98 0 -11.01 -10.1 0 -5.85 -6.35 0 -9.64 -8.88 0 -7.11 -7.69 0c-124.17,-114.88 -244.28,-234.1 -359.87,-357.64l0 -9.92 -9.43 0 -6.56 -6.92 0 -9.07 -8.32 0 -7.63 -8.42 0 -7.57 -6.88 0 -9.11 -10 0 -5.93 -5.4 0 -10.59 -11.7 0 -4.29 -3.87 0 -12.1 -13.32 0 -2.67 -2.47 0 -13.5 -14.9 0 -1.09 -0.97 0c-37.49,-41.69 -74.46,-83.81 -110.92,-126.38l0 -1.46 -1.25 0c-26.54,-30.98 -52.65,-62.38 -78.62,-93.85l0 -2.05 -1.74 0c-15.46,-18.7 -31,-37.22 -46.2,-56.12l0 -7.79 -6.18 0 -9.83 -12.41 0 -3.54 -2.78 0c-15.14,-18.89 -30.18,-37.91 -45.15,-56.98l0 -6.98 -5.49 0 -10.5 -13.22 0 -2.73 -2.17 0 -29.79 -38.9 0 -9.07 -6.84 0 -9.11 -12.04 0 -3.89 -2.92 0 -29.04 -38.42 0 -9.55 -7.21 0 -8.8 -11.6 0 -4.39 -3.32 0c-15.02,-20.3 -29.73,-40.91 -44.61,-61.39l0 -2.53 -1.8 0c-15.41,-21.29 -30.95,-42.5 -46.13,-63.92l-31.96 -45.98 0 -1.95 -1.3 0 -30.66 -44.51 0 -3.4 -2.29 0c-9.83,-14.41 -19.95,-28.68 -29.67,-43.17l0 -4.8 -3.22 0c-9.73,-14.55 -19.16,-29.36 -28.78,-43.94l0 -4 -2.63 0 -13.3 -20.33 0 -11.65 -7.61 0 -8.38 -12.82 0 -3.13 -2.04 0 -13.93 -21.28 0 -10.7 -7 0 -8.99 -14.31 0 -1.68 -1.07 0 -14.9 -23.95 0 -7.97 -4.96 0 -27 -43.4 0 -4.57 -2.85 0c-9.7,-15.73 -19.59,-31.31 -29.15,-47.08l0 -0.85 -0.5 0 -15.43 -26.09 0 -5.89 -3.48 0c-31.53,-52.63 -62.24,-105.82 -92.41,-159.37l0 -0.39 -0.23 0 -15.76 -28.09 0 -3.89 -2.17 0 -13.84 -24.65 0 -7.29 -4.11 0 -11.82 -21.53 0 -10.45 -5.59 0 -10.4 -19.61 0 -12.37 -6.58 0 -25.42 -47.8 0 -0.13 -0.08 0 -15.85 -29.85 0 -2.08 -1.12 0 -14.89 -28.99 0 -2.99 -1.48 0 -14.51 -28.81 0 -3.17 -1.58 0 -14.39 -28.68 0 -3.26 -1.64 0 -14.35 -28.54 0 -3.44 -1.74 0 -14.23 -28.44 0 -3.5 -1.6 0 -14.37 -30.26 0 -1.72 -0.81 0c-27.14,-56.39 -53.45,-113.33 -79.1,-170.53l0 -5.22 -2.33 0 -13.66 -30.62 0 -1.36 -0.63 0c-5.06,-11.51 -10.38,-22.93 -15.34,-34.43l0 -13.5 -5.95 0 -10.02 -23.86 0 -8.12 -3.38 0 -12.59 -30.07 0 -1.85 -0.79 0 -15.2 -36.29 0 -11.68 -4.9 0 -11.09 -26.47 0 -5.48 -2.31 0c-4.67,-11.5 -9.04,-23.2 -13.64,-34.74l0 -13.23 -5.22 0 -10.77 -27.55 0 -4.39 -1.74 0 -14.25 -36.36 0 -11.57 -4.55 0 -11.46 -29.67 0 -2.31 -0.85 0c-5.22,-13.72 -10.02,-27.63 -15.14,-41.39l0 -6.52 -2.39 0c-15.54,-42.08 -30.8,-84.3 -45.5,-126.75l0 -1.13 -0.44 0 -15.55 -45.97 0 -1.96 -0.72 0 -15.25 -44.97 0 -2.94 -0.99 0 -14.99 -45.76 0 -18.16 -5.71 0 -10.28 -32.75 0 -15.22 -4.78 0 -11.23 -35.7 0 -12.24 -3.83 0 -12.16 -40.4 0 -23.52 -6.79 0 -9.14 -31.78 0 -16.13 -4.66 0 -11.35 -39.33 0 -8.64 -2.49 0 -13.5 -49.75 0 -14.17 -3.71 0 -12.26 -46.57 0 -1.36 -0.35 0c-10.95,-41.84 -21.39,-83.88 -31.61,-126.02l0 -1.8 -0.43 0c-5.24,-21.74 -10.5,-43.41 -15.54,-65.23l0 -14.68 -3.5 0c-4.3,-18.9 -8.32,-37.91 -12.49,-56.85l0 -23.06 -4.92 0 -11.09 -51.63 0 -28.27 -6.07 0c-3.43,-16.76 -6.56,-33.62 -9.84,-50.46l0 -29.45 -5.59 0 -10.4 -55.04 0 -24.87 -4.74 0c-3.92,-21.96 -7.49,-44.02 -11.27,-66.03l0 -13.86 -2.27 0c-10.77,-64.24 -20.56,-128.79 -29.67,-193.56l0 -30.18 -4.25 0c-4.15,-30.62 -7.96,-61.37 -11.74,-92.13l0 -51.69 -6.01 0c-3.48,-30.26 -6.9,-60.56 -9.98,-90.92l0 -68.84 -6.38 0c-7.3,-78.78 -13.5,-157.86 -18.07,-237.46 1.46,47.34 3.32,94.46 5.5,141.56l-1.39 0c-3.52,-47.06 -6.6,-94.26 -9.13,-141.56 0,-60.01 0,-119.99 0,-177.43 0,-57.44 0,-134.9 0,-202.34 0,-67.46 0,-135 0,-202.44 2.17,-100.07 6.23,-199.63 11.37,-298.97l2.13 0 0 -35.91c4.33,-78.82 9.49,-157.41 15.67,-235.74l0.3 0 0 -3.62c4.13,-52.14 8.16,-104.28 13.1,-156.18l2.89 0 0 -29.53c4.8,-48.88 10.38,-97.55 15.89,-146.23l0.1 0 0 -0.91c9.01,-79.91 19.03,-159.5 29.96,-238.82l1.98 0 0 -14.8c4.53,-32.4 8.94,-64.78 13.74,-97.07l2.27 0 0 -14.31c4.9,-32.58 10.3,-65.05 15.54,-97.54l0.45 0 0 -2.95c14.51,-89.95 30.14,-179.55 47.1,-268.71l0.81 0 0 -4.43c4.81,-25.14 9.25,-50.42 14.23,-75.46l1.74 0 0 -8.34c4.77,-23.96 10.12,-47.69 15.04,-71.57l0.95 0 0 -4.57 15.82 -75.34 0.15 0 0 -0.58c14.99,-69.35 30.76,-138.39 47.18,-207.16l0.79 0 0 -3.26c4.83,-20.2 9.37,-40.5 14.31,-60.66l1.62 0 0 -6.95 14.43 -56.95 1.56 0 0 -6.13c4.91,-19.33 10.16,-38.5 15.14,-57.79l0.87 0 0 -3.26 15.84 -60.66 0.15 0 0 -0.46c19.97,-74.77 40.9,-149.2 62.58,-223.26l1.33 0 0 -4.57c15.24,-51.96 30.93,-103.65 47.02,-155.24l0.89 0 0 -2.9c34.86,-111.72 71.23,-222.68 109.91,-332.67l1.98 0 0 -5.79 14.92 -42.18 1.05 0 0 -2.85c20.69,-57.89 42,-115.51 63.76,-172.91l0.2 0 0 -0.49c20.22,-53.37 41.21,-106.36 62.36,-159.31l1.52 0 0 -3.85c10.12,-25.32 19.85,-50.84 30.2,-76.06l1.76 0 0 -4.45c10.36,-25.28 21.33,-50.28 31.88,-75.46l0.08 0 0 -0.18c15.68,-37.32 31.31,-74.55 47.44,-111.65l0.49 0 0 -1.23c20.76,-47.79 42.22,-95.17 63.71,-142.61l0.23 0 0 -0.49 14.23 -31.49 1.76 0 0 -3.79c36.25,-79.18 73.51,-157.87 111.8,-235.92l0.02 0 0 -0.08c15.73,-32.04 31.66,-63.92 47.69,-95.76l0.3 0 0 -0.52c46.01,-91.21 93.62,-181.58 142.37,-271.14l1.44 0 0 -2.63 15.93 -29.35 0.04 0 0 -0.13c41.23,-75.11 83.31,-149.67 126.44,-223.59l1.42 0 0 -2.41c15.1,-25.91 30.38,-51.73 45.76,-77.5l2.17 0 0 -3.62c66.91,-112.07 135.79,-222.83 206.91,-331.96l0.83 0 0 -1.26 30.63 -46.65 1.33 0 0 -1.95c10.2,-15.44 20.69,-30.66 30.97,-46.02l0.95 0 0 -1.4 31.31 -46.53 0.69 0 0 -1.05c10.53,-15.57 20.89,-31.34 31.56,-46.88l0.36 0 0 -0.53c36.68,-53.55 74.12,-106.5 111.87,-159.27l0.02 0 0 -0.04c15.24,-21.25 30.18,-42.74 45.52,-63.88l2.41 0 0 -3.27c62.04,-85.28 125.95,-169.23 190.62,-252.44l1.18 0 0 -1.54c20.34,-26.13 40.56,-52.46 61.2,-78.37l2.7 0 0 -3.48c20.4,-25.63 41.16,-51.01 61.75,-76.41l2.18 0 0 -2.69c20.99,-25.81 41.94,-51.59 63.19,-77.18l0.73 0 0 -0.85c26.4,-31.86 53.05,-63.53 79.87,-95.05l0.02 0 0 -0.08c36.39,-42.81 72.7,-85.57 109.81,-127.75l2.04 0 0 -2.27c41.98,-47.65 84.66,-94.71 127.53,-141.56l0.29 0 0 -0.35c193.15,-211.04 395.51,-413.34 606.13,-606.9l1.14 0 0 -1.05c52.4,-48.14 105.35,-95.76 158.8,-142.78l1.02 0 0 -0.91c36.14,-31.78 72.25,-63.72 108.89,-94.97l2.93 0 0 -2.49c36.9,-31.49 74.18,-62.44 111.49,-93.37l0.4 0 0 -0.32c52,-43.07 104.5,-85.52 157.39,-127.51l2.39 0 0 -1.89c26.05,-20.72 51.87,-41.65 78.15,-62.07l1.74 0 0 -1.36c20.26,-15.71 40.86,-30.99 61.26,-46.57l2.66 0 0 -2.03c62.84,-48.01 126.24,-95.27 190.26,-141.78l1.55 0 0 -1.15c36.17,-26.3 72.2,-52.95 108.8,-78.76l3.01 0 0 -2.1c52.71,-37.17 105.88,-73.6 159.33,-109.75l0.49 0 0 -0.36c31.7,-21.46 63.7,-42.44 95.63,-63.54l0.27 0 0 -0.18c57.24,-37.79 114.84,-75.11 172.91,-111.72l2.87 0 0 -1.76c94.59,-59.61 190.32,-117.56 287.09,-173.99l0.53 0 0 -0.32c36.68,-21.38 73.49,-42.67 110.43,-63.6l1.44 0 0 -0.81c232.58,-131.64 471.09,-253.95 714.85,-366.73l4.27 0 0 -1.99 29.95 -14 1.97 0 0 -0.91c46.85,-21.48 94.09,-42.25 141.29,-63.01l2.57 0 0 -1.12c74.08,-32.5 148.63,-64.06 223.68,-94.78l0.02 0c25.95,-10.63 51.77,-21.5 77.86,-31.94l2.07 0 0 -0.85c26.47,-10.55 53.11,-20.75 79.72,-31.13l0.15 0 0 -0.04c99.98,-38.9 200.82,-76.1 302.39,-111.79l1.25 0 0 -0.46 43.86 -15.53 4.07 0 0 -1.45c13.83,-4.76 27.49,-9.84 41.35,-14.54l6.58 0 0 -2.18c13.99,-4.76 28.19,-9.15 42.2,-13.81l5.77 0 0 -1.86 43.09 -14.13 4.82 0 0 -1.58c47.72,-15.68 95.41,-31.35 143.42,-46.35l0.43 0 0 -0.14c35.09,-10.91 70.43,-21.23 105.71,-31.78l6.11 0 0 -1.86 46.98 -14.13 0.99 0 0 -0.32c36.92,-10.83 74.06,-21.25 111.16,-31.67l0.69 0 0 -0.19c58.17,-16.31 116.4,-32.48 175.02,-47.74l0.79 0 0 -0.17c21.09,-5.5 42.4,-10.48 63.55,-15.82l0.37 0 0 -0.09c65.35,-16.53 130.91,-32.62 196.77,-47.84l10.97 0 0 -2.45c20.24,-4.66 40.61,-9.01 60.89,-13.54l3.01 0 0 -0.67c47.75,-10.65 95.48,-21.35 143.51,-31.31l0.3 0 0 -0.04c82.08,-17.03 164.6,-32.93 247.48,-47.89l8.24 0 0 -1.4c94.32,-16.94 189.22,-32.24 284.41,-46.51l3.24 0 0 -0.45c35.34,-5.3 70.64,-10.66 106.06,-15.54l5.77 0 0 -0.87c39.02,-5.4 78.19,-10.18 117.31,-15.12l10.51 0 0 -1.26c92.74,-11.57 185.9,-21.67 279.42,-30.68l8.23 0 0 -0.77c58.36,-5.58 116.77,-10.65 175.41,-15.22l16.39 0 0 -1.19c77.42,-5.89 155.16,-10.67 232.99,-14.8l22.67 0 0 -1.05c134.29,-6.84 269.31,-11.26 405,-12.55 59.27,-0.53 118.29,0.14 177.29,0.65 37.4,0.32 74.81,0.64 112.13,1.35 45.16,0.91 90.27,2.27 135.33,3.81 37.58,1.27 75.19,2.49 112.64,4.17l48.33 2.35 0 1.27 24.23 0 59.99 3.4c38.01,2.21 76.02,4.43 113.93,7.06l41.58 3.04 0 2.49 31.91 0 58.86 4.8c36.33,3.03 72.65,5.93 108.86,9.37 45.52,4.31 90.96,9.15 136.29,14.05l15.65 1.68 0 2.04 19.05 0c24.1,2.63 48.15,5.3 72.15,8.14l52.59 6.53 0 1.32 10.5 0 69.87 9.19 47.49 6.31 0 0.49 3.42 0 57.62 7.97 50.82 7.57 0 0.45 2.86 0 76.87 12 16.13 2.53 0 1.46 9.17 0c27.51,4.29 54.99,8.7 82.44,13.36l4.29 0.71 0 1.86 10.73 0c28.44,4.9 56.75,9.98 85.17,15.14l0 0.85 4.47 0 25.42 4.63c35.87,6.56 71.74,13.04 107.48,20.02 43.13,8.38 86.08,17.35 129.01,26.33l53.19 11.08 0 1.86 8.75 0 42.24 9.11 28.94 6.43 0 0.45 1.92 0 61.98 14.17 0 1.82 7.67 0 35.4 8.3c31.56,7.42 63.21,14.71 94.67,22.46 46.65,11.46 93,23.52 139.39,35.61l42.49 11.05 0 2.49 9.61 0 39.55 10.56 14.75 4.03 0 1.36 5 0c35.69,9.83 71.27,20.03 106.85,30.21l0 1.78 6.14 0 0.66 0.17c32.53,9.33 65.06,18.52 97.46,28.17 44.77,13.32 89.18,27.24 133.69,41.17 27.2,8.52 54.53,16.96 81.67,25.69l0 0.68 2.08 0 5.57 1.82 40.28 13.18 0 0.95 2.85 0 45.1 15.12 0 0.87 2.63 0 45.3 15.36 0 0.63 1.8 0 0.95 0.31 45.19 15.4 0 0.28 0.85 0 39.51 13.64c45.34,15.89 90.36,32.37 135.45,48.95l0 1.33 3.62 0 0.21 0.08c27,9.92 54.04,19.7 80.94,29.9l43.03 16.45 0 1.48 3.84 0 91.53 35.89c27.59,10.91 55.24,21.69 82.74,32.83 44.23,17.95 88.11,36.51 132.07,55.09l9.45 3.99 0 0.04 0.11 0 31.83 13.4 0 2.59 6.08 0 37.01 15.81 36.82 16.13 0 0.04 0.04 0 31.92 14.17 0 1.82 4.01 0 61.04 27.5c26.38,11.91 52.89,23.69 79.1,35.83 46.72,21.6 92.99,43.84 139.34,66.14 23.35,11.22 46.77,22.27 69.97,33.7 46.25,22.73 92.11,46.07 137.94,69.49 24.22,12.35 48.49,24.55 72.56,37.14 30.56,15.89 60.88,32.12 91.2,48.42l0 1.35 2.51 0 29.49 15.91 0 0.08 0.12 0 9.37 5.08c24.27,13.14 48.72,26.13 72.89,39.45 20.54,11.33 40.99,22.83 61.43,34.39l0 0.99 1.7 0 70.76 40.32c22.67,12.95 45.4,25.77 67.97,38.92 44.02,25.67 87.64,51.9 131.21,78.27l0 2.31 3.79 0 1.68 0.99c20.85,12.59 41.83,25.1 62.58,37.83l11.88 7.29 0 1.8 2.86 0c40.09,24.83 79.78,50.01 119.52,75.35l5.42 3.44 0 1.12 1.76 0c18.58,11.78 37.26,23.51 55.72,35.48 44.55,28.84 88.67,58.33 132.68,87.88 20.32,13.62 40.68,27.04 60.88,40.8l36.62 25.14 0 2.45 3.48 0 44.48 31.03 0 0.95 1.36 0 49.37 34.78c17.93,12.69 36.05,25.21 53.9,38.01 44.36,31.81 88.26,64.2 132.06,96.72l50.95 37.69 0 0.53 0.71 0 4.55 3.4c43.68,32.89 86.79,66.31 129.9,99.93 17.8,13.86 35.81,27.6 53.52,41.59 38.6,30.52 76.77,61.51 114.9,92.62l0 2.14 2.6 0 10.88 8.87c17.27,14.13 34.72,28.05 51.94,42.32l14.51 12.05 0 0.72 0.87 0c38.12,31.8 75.8,64.06 113.51,96.39 15.73,13.54 31.7,26.86 47.38,40.5 20.79,18.07 41.38,36.19 61.94,54.49l0 0.36 0.44 0 15.55 13.91 0 2.08 2.37 0 45.3 40.64c16.07,14.49 32.4,28.76 48.37,43.34 21.37,19.49 42.63,39.14 63.78,58.9l0 0.95 0.99 0 15.02 14 0 1.93 2.04 0 43.13 40.5c14.6,13.78 29.39,27.38 43.92,41.23 42.53,40.58 84.49,81.81 126.3,123.16 12.94,12.83 26.09,25.52 38.99,38.42 40.76,40.76 80.94,82.07 120.99,123.58 14.05,14.58 28.34,28.97 42.29,43.62 26.09,27.35 51.99,54.95 77.7,82.66l0 2.27 2.14 0 13.79 14.94 0 0.99 0.95 0 29.02 31.49c10.87,11.82 21.98,23.52 32.77,35.42 27.27,29.94 54.27,60.2 81.11,90.5l0 2.41 2.1 0 13.87 15.68 0 0.31 0.3 0 23.68 26.96 34.15 38.63c39.61,45.61 78.57,91.86 117.41,138.21l16.27 19.3 0 0.63 0.55 0 15.93 18.93 47.44 57.9 0 3.08 2.47 0c21.66,26.72 43.13,53.54 64.61,80.44 10.44,13.15 21.19,26.09 31.61,39.28 36.68,46.52 72.75,93.63 108.61,140.79l32.37 42.12 0 0.94 0.71 0 0.97 1.29c15.54,20.65 30.98,41.45 46.27,62.32l0 0.35 0.28 0 59.87 82.23c10.26,14.13 20.65,28.05 30.81,42.22 23.21,32.43 46.06,65.14 68.83,97.93l0 1.31 0.94 0 31.02 44.95 0 3.02 2.09 0c10.34,14.96 20.85,29.67 31.09,44.67 32.08,47.2 63.53,94.95 94.84,142.72 11.42,17.46 23.08,34.71 34.41,52.2l29.31 45.74 0 2.31 1.44 0c20.5,32.34 40.78,64.87 61.04,97.39l17.45 27.77 0 2.69 1.7 0 13.26 21.28 32.99 54.36 0 4.25 2.53 0c19.49,32.53 38.82,65.14 58.05,97.86 8.46,14.38 17.22,28.66 25.62,43.1 24.94,42.86 49.37,85.98 73.58,129.33l0 1.36 0.76 0 15.21 27.32 0 4.66 2.59 0c7.69,13.82 15.64,27.5 23.31,41.41 12.79,23.32 25.48,46.75 38.03,70.21l0 0.23 0.13 0 15.88 29.67 0 2.31 1.2 0 31.03 58.75c8.05,15.35 16.41,30.48 24.41,45.83 27.97,53.86 55.09,108.18 82.09,162.63 7.83,15.81 15.93,31.43 23.7,47.24 25.55,52.24 50.28,104.92 74.93,157.65l18.3 38.54 0 0.73 0.36 0 7.78 16.7c18.98,41.37 37.44,83 55.82,124.66l0 2.46 1.09 0 11.7 26.68c9.07,20.65 18.5,41.09 27.41,61.82l7.71 17.99 0 5.34 2.29 0c15.52,36.33 30.62,72.89 45.64,109.44l0 2.41 0.99 0 10.75 26.17c7.65,18.72 15.66,37.3 23.21,56.03 20.85,51.79 40.99,103.93 60.93,156.21l0 1.3 0.5 0 5.3 13.86c6.2,16.31 12.76,32.43 18.91,48.8 7.85,20.91 15.58,41.94 23.23,62.95l0 2.22 0.75 0 36.19 101.19c6.91,19.39 14.15,38.61 20.91,58.07 18.38,52.88 35.87,106.18 53.35,159.45 7.29,22.26 15,44.36 22.13,66.69 14.67,45.62 28.62,91.49 42.48,137.43l0 4.52 1.34 0 5.87 19.53 8.76 28.41 11.66 38.18 20.3 70.58 0 3.13 0.85 0c9.72,34.47 19.19,69.08 28.68,103.63 4.8,17.49 9.92,34.8 14.6,52.28l3.76 14.09 0 5.75 1.5 0 14.49 55.54 0 8.38 2.14 0c9.21,35.74 18.06,71.65 26.88,107.52 3.38,13.82 7.09,27.52 10.43,41.33 8.46,34.93 16.57,69.97 24.49,105.14l0 1.72 0.36 0 15.14 67.63 0.49 2.18 0 10.1 2.27 0c3.8,16.56 7.71,33.14 11.37,49.82l2.35 10.92 0 3.16 0.65 0c5.26,24.61 10.36,49.23 15.32,73.88l0 6.03 1.25 0 19.29 97.48c2.88,14.9 6.16,29.63 8.99,44.53 11.11,58.25 21.13,116.82 31.17,175.44l3.22 18.06 0 0.06c2.83,15.62 5.72,31.39 8.28,47.14l7.73 48.57 0 16.17 2.49 0 13.21 89.16 0.21 1.34 0 5.36 0.79 0c4.1,27.08 8.52,53.94 12.34,81.11 6.84,48.84 12.9,97.98 18.87,147.14l0 11.46 1.39 0 3.08 25.68c2.33,19.35 5.12,38.56 7.37,57.95l4.13 37.04 0 23.14 2.49 0c5.72,53.41 10.97,106.95 15.88,160.64l2.43 24.15c4.23,46.96 7.82,94.08 11.16,141.28l0 25.5 1.82 0 1.8 25.67c1.33,18.45 3.03,36.75 4.27,55.19 3.06,46.71 5.75,93.53 8.09,140.47l0 15.48c-1.61,-27.71 -3.38,-55.38 -5.32,-83.02 -1.78,-25.41 -4.21,-50.6 -6.29,-75.97 -2.74,-33.88 -5.22,-67.86 -8.44,-101.6 -2.23,-23.24 -5.06,-46.25 -7.49,-69.45 -3.61,-34.34 -7.03,-68.71 -11.13,-102.86 -3.91,-32.44 -8.48,-64.65 -12.84,-96.89 -3.4,-25.14 -6.39,-50.38 -10.04,-75.49 -4.39,-30.16 -9.41,-60.1 -14.18,-90.13 -4.36,-27.49 -8.46,-55.08 -13.12,-82.44 -4.66,-27.45 -9.92,-54.63 -14.96,-81.94 -5.38,-29.35 -10.5,-58.84 -16.25,-88.06 -5.53,-28.04 -11.58,-55.89 -17.41,-83.8 -5.85,-27.99 -11.47,-56.08 -17.65,-83.95 -6.51,-29.11 -13.46,-57.97 -20.3,-86.92 -6.31,-26.63 -12.32,-53.41 -18.96,-79.95 -7.51,-30.4 -15.61,-60.53 -23.56,-90.73 -6.36,-24.37 -12.55,-48.84 -19.17,-73.11 -8.38,-30.54 -17.31,-60.88 -26.05,-91.28 -7.04,-24.33 -13.86,-48.74 -21.13,-72.93 -9.45,-31.53 -19.41,-62.83 -29.33,-94.18 -6.9,-21.86 -13.66,-43.84 -20.75,-65.58 -10.56,-32.34 -21.63,-64.38 -32.66,-96.5 -7.37,-21.36 -14.52,-42.85 -22.07,-64.14 -10.97,-30.93 -22.38,-61.6 -33.74,-92.3 -8.23,-22.2 -16.33,-44.49 -24.73,-66.59 -11.13,-29.03 -22.57,-57.81 -34.04,-86.67 -9.33,-23.5 -18.56,-47.1 -28.12,-70.48 -11.7,-28.48 -23.74,-56.71 -35.78,-84.97 -9.84,-23.15 -19.57,-46.29 -29.69,-69.3 -12.7,-29.1 -25.89,-57.99 -38.99,-86.85 -9.65,-21.25 -19.21,-42.57 -29.08,-63.68 -13.83,-29.59 -28.04,-58.94 -42.22,-88.3 -10.27,-21.24 -20.41,-42.47 -30.93,-63.58 -14.29,-28.78 -29.01,-57.26 -43.62,-85.8 -10.52,-20.44 -20.89,-40.9 -31.57,-61.2 -15.04,-28.58 -30.45,-56.94 -45.89,-85.3 -11.27,-20.74 -22.57,-41.49 -34.04,-62.11 -15.79,-28.34 -31.94,-56.48 -48.15,-84.61 -11.08,-19.29 -22.17,-38.64 -33.48,-57.83l-21.58 -36.33 0 -0.32 -0.2 0 -29.65 -49.06c-11.48,-18.85 -22.9,-37.69 -34.55,-56.41 -17.57,-28.26 -35.4,-56.35 -53.32,-84.34l-35.68 -55.22c-17.93,-27.39 -36.15,-54.57 -54.43,-81.71 -12.67,-18.84 -25.42,-37.69 -38.27,-56.35 -18.74,-27.18 -37.71,-54.14 -56.77,-81l-37.45 -52.4c-19.94,-27.55 -40.14,-54.86 -60.44,-82.08l-38.27 -50.92c-20.06,-26.36 -40.34,-52.55 -60.74,-78.64l-41.23 -52.22c-20.4,-25.56 -40.99,-50.92 -61.74,-76.16 -14.18,-17.25 -28.37,-34.47 -42.68,-51.55 -21.03,-25.08 -42.26,-50.08 -63.62,-74.87l-43.39 -49.87c-22,-25.1 -44.19,-49.96 -66.57,-74.75l-42.12 -46.25c-23.38,-25.4 -46.9,-50.6 -70.62,-75.64l-41.78 -43.7c-24.06,-24.97 -48.29,-49.79 -72.7,-74.4l-42.44 -42.4c-25.1,-24.86 -50.36,-49.55 -75.87,-74.06l-41.37 -39.35c-25.9,-24.51 -51.93,-48.84 -78.25,-72.97l-43.55 -39.51c-25.85,-23.33 -51.84,-46.53 -78.09,-69.48l-45.42 -39.41c-26.45,-22.79 -52.99,-45.4 -79.83,-67.78l-46.75 -38.58c-26.58,-21.84 -53.21,-43.5 -80.11,-64.93l-48.07 -37.81c-27.33,-21.38 -54.82,-42.67 -82.46,-63.64 -16.01,-12.2 -32.14,-24.2 -48.3,-36.19 -27.73,-20.66 -55.56,-41.27 -83.61,-61.53l-50.32 -35.88c-27.85,-19.74 -55.78,-39.41 -83.97,-58.78 -17.41,-11.96 -34.98,-23.74 -52.47,-35.56 -28.21,-19.03 -56.49,-37.97 -84.97,-56.58l-50.07 -32.26c-29.9,-19.19 -59.95,-38.33 -90.23,-57.12l-49.37 -30.16c-30.16,-18.39 -60.41,-36.69 -90.9,-54.64 -18.03,-10.59 -36.21,-20.93 -54.38,-31.38 -29.19,-16.86 -58.42,-33.66 -87.85,-50.05 -19.14,-10.65 -38.41,-21.07 -57.66,-31.58 -29.49,-16.07 -59,-32.06 -88.77,-47.74l-56.31 -29.13c-30.14,-15.54 -60.26,-31.03 -90.68,-46.11 -19.41,-9.65 -39,-19.04 -58.51,-28.51 -30.37,-14.76 -60.79,-29.53 -91.45,-43.84 -18.76,-8.79 -37.75,-17.21 -56.59,-25.81 -31.8,-14.55 -63.62,-29.09 -95.7,-43.13 -19.02,-8.34 -38.23,-16.4 -57.34,-24.55 -31.35,-13.42 -62.66,-26.78 -94.2,-39.78 -20.16,-8.28 -40.42,-16.21 -60.72,-24.31 -32.08,-12.83 -64.16,-25.7 -96.46,-38.05 -17.45,-6.7 -35.04,-13.05 -52.59,-19.57 -34.65,-12.97 -69.24,-25.87 -104.13,-38.29 -18.04,-6.38 -36.23,-12.45 -54.33,-18.69 -34.49,-11.96 -69.02,-23.92 -103.77,-35.34 -18.91,-6.21 -38.01,-12.06 -56.96,-18.13 -34.24,-10.91 -68.47,-21.92 -102.88,-32.3 -21.72,-6.56 -43.64,-12.63 -65.4,-19.01 -31.51,-9.21 -62.96,-18.48 -94.62,-27.24 -24.31,-6.7 -48.8,-12.9 -73.29,-19.39 -30.34,-8 -60.7,-16.2 -91.22,-23.85 -19.86,-4.98 -39.94,-9.53 -59.91,-14.33 -35.36,-8.5 -70.68,-17.12 -106.25,-25.08 -17.22,-3.86 -34.55,-7.3 -51.79,-11.01 -37.61,-8.17 -75.27,-16.27 -113.08,-23.84 -19.92,-3.93 -40,-7.41 -59.96,-11.23 -36.25,-6.88 -72.41,-13.81 -108.81,-20.16l-22.73 -3.65c-200.78,-34.12 -404.46,-59.44 -610.45,-76.06 -15.76,-1.29 -31.49,-2.87 -47.26,-4.03 -44.79,-3.32 -89.72,-5.85 -134.72,-8.31l-37.64 -2.25c-37.41,-1.86 -75.11,-2.94 -112.64,-4.17 -21.33,-0.73 -42.63,-1.72 -63.96,-2.27 -35.58,-0.91 -71.31,-0.99 -106.99,-1.31 -21.13,-0.17 -42.08,-0.77 -63.21,-0.77l-10.51 0 -7.44 0c-58.44,0.14 -116.65,0.99 -175.47,2.57 -56.77,1.54 -113.32,3.86 -169.73,6.72 -18.7,0.95 -37.3,2.35 -55.97,3.44 -37.02,2.18 -74.08,4.43 -110.95,7.16 -22.69,1.68 -45.26,3.71 -67.89,5.61 -33.76,2.85 -67.48,5.75 -101.04,9.05 -22.63,2.24 -45.14,4.73 -67.74,7.18 -33.3,3.61 -66.55,7.37 -99.65,11.44l-67.38 8.66c-33.64,4.49 -67.24,9.19 -100.73,14.13l-64.27 9.71c-33.7,5.29 -67.28,10.95 -100.79,16.7 -21.28,3.67 -42.63,7.21 -63.82,11.05 -35.62,6.48 -71.1,13.42 -106.49,20.43 -18.52,3.68 -37.06,7.12 -55.57,10.91 -46.27,9.57 -92.4,19.63 -138.31,30.09l-22.08 4.8c-53.33,12.31 -106.42,25.32 -159.25,38.82 -15.1,3.85 -30.04,8.06 -45.14,12 -37.42,9.84 -74.74,19.76 -111.9,30.18 -19.54,5.47 -39.01,11.26 -58.5,16.94 -32.75,9.5 -65.46,19.11 -98.02,29.07 -20.49,6.27 -40.85,12.73 -61.27,19.17 -31.56,9.97 -63.03,20.11 -94.44,30.52l-62.52 21.17c-29.98,10.28 -59.81,20.73 -89.63,31.39l-63.61 23c-31.46,11.61 -62.77,23.56 -94.04,35.6l-55.62 21.53c-33.84,13.36 -67.5,27.17 -101.04,41.09 -16.13,6.66 -32.36,13.12 -48.42,19.92 -43.31,18.3 -86.34,37.06 -129.17,56.17l-17.71 7.75c-49.1,22.1 -97.86,44.75 -146.38,67.94 -13.27,6.34 -26.35,12.96 -39.57,19.39 -34.39,16.72 -68.73,33.52 -102.82,50.77 -18.54,9.39 -36.82,19 -55.23,28.54 -29.17,15.09 -58.3,30.3 -87.22,45.76l-55.6 30.22c-28.36,15.48 -56.57,31.15 -84.66,47l-57.69 33.03c-26.27,15.18 -52.36,30.5 -78.41,45.98 -20.22,12.05 -40.5,24.15 -60.6,36.42 -25.89,15.76 -51.65,31.81 -77.32,47.93 -18.94,11.86 -37.93,23.68 -56.75,35.74 -25.97,16.62 -51.72,33.6 -77.46,50.6 -19.07,12.59 -38.22,24.96 -57.18,37.73 -30.99,20.87 -61.63,42.12 -92.26,63.51 -11.84,8.24 -23.84,16.2 -35.62,24.55 -42.97,30.36 -85.6,61.19 -127.86,92.5 -11.96,8.83 -23.78,17.98 -35.66,26.9 -30.3,22.75 -60.54,45.58 -90.45,68.76 -16.42,12.69 -32.59,25.7 -48.84,38.54 -24.66,19.49 -49.27,39.02 -73.68,58.81 -18.9,15.35 -37.57,30.89 -56.31,46.42 -21.15,17.54 -42.3,35.17 -63.29,52.96 -19.59,16.58 -38.96,33.34 -58.31,50.14 -20.97,18.22 -41.86,36.57 -62.65,55.05l-54.06 48.5c-22.24,20.16 -44.22,40.56 -66.2,60.98 -16.16,15.04 -32.33,30.08 -48.38,45.3 -22.83,21.7 -45.36,43.62 -67.94,65.64 -15.57,15.18 -31.3,30.3 -46.74,45.62 -24.41,24.23 -48.52,48.78 -72.54,73.37 -12.47,12.79 -25.16,25.42 -37.57,38.28 -36.08,37.42 -71.71,75.29 -106.93,113.51 -10.44,11.37 -20.64,22.93 -31.07,34.4 -24.57,27.04 -49.18,54.17 -73.31,81.61 -15.54,17.67 -30.84,35.56 -46.18,53.36 -18.85,21.79 -37.63,43.59 -56.23,65.6 -16.25,19.3 -32.29,38.82 -48.32,58.29 -17.24,20.97 -34.51,41.94 -51.53,63.11 -15.82,19.61 -31.45,39.36 -47.04,59.16 -17.52,22.24 -34.87,44.57 -52.15,67.05 -14.84,19.33 -29.62,38.72 -44.27,58.24 -16.76,22.34 -33.4,44.75 -49.95,67.3 -14.7,20.09 -29.39,40.15 -43.93,60.39 -16.67,23.24 -33.05,46.74 -49.44,70.22 -13.83,19.75 -27.73,39.46 -41.33,59.34 -18.56,27.14 -36.7,54.49 -54.87,81.95 -10.59,15.99 -21.4,31.92 -31.92,48.01 -28.28,43.4 -56.17,87.1 -83.47,131.18 -9.66,15.57 -18.95,31.45 -28.52,47.06 -17.67,29 -35.38,57.99 -52.59,87.24 -12.04,20.44 -23.72,41.14 -35.6,61.71 -14.74,25.58 -29.57,51.23 -43.98,77.01 -11.54,20.69 -22.87,41.52 -34.23,62.36 -14.09,25.83 -28.13,51.64 -41.92,77.65 -11.17,21.11 -22.14,42.3 -33.11,63.55 -13.64,26.37 -27.14,52.85 -40.44,79.4l-31.31 63.33c-13,26.6 -25.75,53.36 -38.4,80.14l-30.22 64.5c-12.87,27.91 -25.36,56.03 -37.87,84.16 -9.14,20.61 -18.43,41.13 -27.38,61.84 -12.83,29.75 -25.24,59.74 -37.71,89.68 -8.11,19.49 -16.41,38.92 -24.37,58.49 -18.13,44.7 -35.74,89.59 -52.95,134.76l-15.1 40.26c-15.36,41.05 -30.46,82.22 -45.11,123.63 -5.95,16.8 -11.5,33.74 -17.31,50.6 -11.51,33.32 -22.93,66.77 -33.94,100.33 -6.84,20.93 -13.4,42.04 -20.04,63.05 -9.69,30.54 -19.31,61.11 -28.6,91.87 -6.51,21.6 -12.85,43.34 -19.15,65.05 -8.88,30.47 -17.6,61.01 -26.06,91.67l-18.1 67c-7.95,29.81 -15.6,59.75 -23.17,89.74 -5.71,22.65 -11.34,45.34 -16.84,68.09 -7.68,31.84 -14.98,63.86 -22.23,95.88 -4.71,20.79 -9.47,41.55 -14,62.38 -7.88,36.37 -15.18,73.03 -22.51,109.62 -3.38,16.82 -7,33.52 -10.22,50.38 -10.43,53.94 -20.12,108.12 -29.23,162.53 -67.48,398.21 -101.4,807.65 -98.57,1225.35l-2.27 0c2.15,2112.24 1585.12,3888.37 3683.07,4132.71 130.65,15.22 260.92,24.19 390.13,27.14l3.95 0.08c30.48,0.69 60.9,1.01 91.24,1.01l1.54 0 22.9 -0.28c23.23,-0.14 46.51,-0.28 69.7,-0.81l36.33 -1.19c19.11,-0.59 38.26,-1.16 57.32,-2.03l38.79 -2.14c17.3,-0.95 34.59,-1.86 51.87,-3.02l44.71 -3.36 47.69 -3.9 40.58 -3.89c18.36,-1.82 36.64,-3.72 54.91,-5.79l33.94 -3.99c19.33,-2.36 38.64,-4.9 57.89,-7.47l35.99 -5.04 50.07 -7.55 43.16 -6.98 49.87 -8.76 37.14 -6.78c18.4,-3.5 36.7,-7.25 55.03,-10.97l35.67 -7.29c17.87,-3.8 35.68,-7.89 53.49,-11.92l35.2 -7.96c25.1,-5.93 50.05,-12.14 75.01,-18.52l11.66 -2.91c29.75,-7.71 59.42,-15.81 88.97,-24.15l8.75 -2.57c26.86,-7.65 53.64,-15.54 80.33,-23.74l13.69 -4.35c23.29,-7.25 46.47,-14.63 69.58,-22.29l31.52 -10.68c18.47,-6.3 36.97,-12.61 55.37,-19.13l28.72 -10.42c18.67,-6.78 37.35,-13.64 55.93,-20.69l31.69 -12.28 52.29 -20.75 30.92 -12.63c17.67,-7.29 35.24,-14.72 52.79,-22.29l31.45 -13.68 51.78 -23.29 28.88 -13.22c18.7,-8.74 37.36,-17.63 55.96,-26.64l25.61 -12.45c20.26,-9.97 40.38,-20.17 60.46,-30.44l18.31 -9.33c24.25,-12.59 48.28,-25.42 72.28,-38.47l7.07 -3.79c80.37,-43.94 159.23,-90.51 236.48,-139.56l14.29 -9.25c20.22,-13.01 40.42,-26.09 60.46,-39.42l19.49 -13.12c18.81,-12.69 37.53,-25.46 56.21,-38.46l19.03 -13.5c18.41,-12.95 36.63,-26.05 54.79,-39.32l18.25 -13.42c18.3,-13.54 36.52,-27.17 54.59,-41.03l18.89 -14.49c17.54,-13.56 34.95,-27.31 52.26,-41.13l19.18 -15.36c17.65,-14.27 35.16,-28.72 52.59,-43.3l16.54 -13.82c18.39,-15.53 36.57,-31.31 54.75,-47.16l13.62 -11.86c17.81,-15.73 35.42,-31.62 52.95,-47.65l15.88 -14.45c19.86,-18.36 39.55,-36.98 59.09,-55.72l5.56 -5.18c66.27,-63.82 130.47,-129.95 192.49,-198.16l8.28 -9.25c17.06,-18.84 33.94,-37.82 50.62,-56.99l17 -19.74c14.07,-16.41 28.11,-32.85 41.94,-49.48l16.88 -20.51c13.7,-16.63 27.26,-33.35 40.74,-50.23l17.51 -22.19c12.71,-16.13 25.22,-32.36 37.71,-48.7l18.92 -25.05c11.78,-15.67 23.42,-31.48 34.98,-47.34l19.28 -26.64c11.5,-16.07 22.9,-32.26 34.17,-48.5l18.06 -26.19c11.86,-17.4 23.62,-34.93 35.27,-52.5l14.5 -22.02c12.71,-19.43 25.17,-39.05 37.52,-58.7l11.92 -18.86c12.79,-20.51 25.22,-41.21 37.65,-62l10.32 -17.18c14.54,-24.62 28.8,-49.45 42.89,-74.41l3.18 -5.48c14.96,-26.6 29.55,-53.4 43.9,-80.4l13.66 -26.37c9.43,-18.03 18.85,-36.05 28.02,-54.28l16.33 -33.1c8.38,-16.98 16.78,-34.02 24.92,-51.14l14.1 -30.18c8.38,-17.98 16.76,-36.01 24.86,-54.11l14.63 -33.21c7.19,-16.41 14.33,-32.75 21.29,-49.29l16.6 -39.81 19.11 -47.3 14.37 -36.82 19.35 -51.1 13.48 -36.78c6.25,-17.35 12.26,-34.75 18.32,-52.18l12.91 -37.79c5.3,-15.75 10.36,-31.67 15.46,-47.52l13.62 -42.79c5.77,-18.58 11.3,-37.34 16.82,-56.03l9.23 -31.31c6.78,-23.6 13.14,-47.38 19.54,-71.16l5.7 -21.03c8.16,-30.85 15.85,-61.92 23.28,-93.17 -2.79,20.02 -6.13,39.86 -9.11,59.79l-0.12 0 0 0.73c-3.93,26.41 -7.89,52.85 -12.1,79.18l-3.91 0 0 25.14c-3.01,18.34 -6.46,36.51 -9.65,54.77l-6.34 0 0 35.95c-3.52,19.95 -6.84,40.01 -10.56,59.89l-5.41 0 0 27.99c-3.3,17.35 -6.94,34.65 -10.38,51.92l-5.59 0 0 27.71c-3.5,17.36 -6.78,34.89 -10.44,52.19l-5.55 0 0 25.45c-5.06,23.56 -10.44,46.99 -15.73,70.45l-0.24 0 0 1c-9.61,42.44 -19.53,84.7 -29.85,126.84l-2.15 0 0 8.56 -13.72 55.34 -2.19 0 0 8.84 -10.12 39.13 -5.87 0 0 21.6 -11.59 42.32 -4.42 0 0 16.27c-4.41,15.85 -8.5,31.8 -13.01,47.65l-2.98 0 0 10.87c-3.52,12.42 -7.44,24.69 -11.01,37.04l-4.94 0 0 16.69 -14.02 47.23 -1.97 0 0 6.53c-4.17,13.77 -8.05,27.73 -12.32,41.45l-3.67 0 0 11.78c-15.46,49.55 -31.37,98.92 -47.84,147.98l-0.1 0 0 0.31c-14.34,42.78 -29.21,85.21 -44.39,127.57l-3.58 0 0 10.34 -13.79 37.59 -2.12 0 0 5.69 -9.84 26.23 -6.17 0 0 16.55 -11.72 31.42 -4.27 0 0 11.39 -13.87 36.54 -2.1 0 0 5.3 -10.67 26.68 -5.32 0 0 13.33 -13.83 34.6 -2.14 0 0 5.3 -10.65 26.68 -5.32 0 0 13.37 -14.39 34.57 -1.6 0 0 3.75c-35.42,84.83 -72.34,168.92 -110.94,251.89l-0.93 0 0 1.96 -14.15 30.02 -1.84 0 0 3.78 -13.54 28.16 -2.43 0 0 5.12 -12.91 26.86 -3.08 0 0 6.45 -12.29 25.53 -3.66 0 0 7.65 -11.88 24.29 -4.09 0 0 8.07 -12.2 23.91 -3.79 0 0 7.51 -12.43 24.43 -3.58 0 0 7.02 -12.69 24.96 -3.3 0 0 6.47 -12.95 25.45 -2.98 0 0 5.82 -14.04 26.17 -1.97 0 0 3.57 -15.2 28.37 -0.79 0 0 1.44c-25.6,47.83 -51.71,95.27 -78.41,142.37l-1.48 0 0 2.63c-14.63,25.83 -29.14,51.68 -44.1,77.28l-3.84 0 0 6.44 -15.21 25.54 -0.78 0 0 1.26 -27.82 46.67 -4.12 0 0 6.94 -14.94 25.04 -1.05 0 0 1.76 -8.63 14.23 -7.34 0 0 11.72 -12.71 20.22 -3.28 0 0 5.3 -26.74 42.61 -5.2 0 0 8.34 -14.8 23.64 -1.19 0 0 1.86 -29.88 46.07 -2.12 0 0 3.17c-30.77,47.33 -62.14,94.14 -94.08,140.65l-1.76 0 0 2.55c-10.42,15.18 -20.79,30.4 -31.35,45.42l-0.61 0 0 0.97 -10.4 14.98 -5.61 0 0 8.16 -28.54 39.81 -3.38 0 0 4.72 -31.27 43.21 -0.73 0 0 0.99 -10.87 15 -5.1 0 0 7.11 -30.18 40.82 -1.78 0 0 2.29 -10.32 13.7 -5.65 0 0 7.41 -30.68 40.5 -1.24 0 0 1.68 -10.83 14.31 -5.16 0 0 6.8c-14.81,19.17 -29.75,38.15 -44.69,57.12l-3.3 0 0 4.17c-15.72,19.99 -31.45,39.95 -47.38,59.75l-0.55 0 0 0.68c-25.84,32.02 -52.01,63.64 -78.35,95.21l-1.55 0 0 1.85 -11.72 14.14 -4.29 0 0 5.17c-25.67,30.48 -51.72,60.6 -77.91,90.69l-1.94 0 0 2.25 -11.92 13.74 -4.07 0 0 4.7 -9.76 11.29 -6.21 0 0 7.15 -7.75 8.84 -8.24 0 0 9.11c-25.97,29.15 -52.24,58.07 -78.64,86.73l-1.29 0 0 1.4 -13.2 14.59 -2.73 0 0 2.87 -12.45 13.12 -3.56 0 0 3.78 -11.58 12.21 -4.41 0 0 4.66c-75.35,80.23 -152.59,158.5 -231.59,235.01l-8.1 0 0 7.85 -8.44 8.14 -7.53 0 0 7.26 -9.02 8.73 -6.96 0 0 6.76 -9.54 9.23 -6.45 0 0 6.21 -10.47 9.79 -5.54 0 0 5.11 -11.68 10.84 -4.31 0 0 3.99 -12.94 12 -2.99 0 0 2.76 -14.25 13.23 -1.74 0 0 1.58 -15.53 14.41 -0.44 0 0 0.41c-77.16,70.84 -155.87,139.96 -236.11,207.32l-3.62 0 0 3.08 -15.22 12.91 -0.71 0 0 0.63c-19.11,15.95 -38.5,31.53 -57.83,47.3l-6.09 0 0 4.94 -13.6 11.05 -2.41 0 0 1.94c-18.98,15.36 -37.87,30.81 -56.99,45.97l-6.93 0 0 5.4 -13.68 10.59 -2.29 0 0 1.82 -38.86 30.12 -9.05 0 0 7.02 -11.59 8.97 -4.42 0 0 3.44c-19.49,14.96 -39.06,29.73 -58.71,44.49l-5.22 0 0 3.86c-41.58,31.15 -83.6,61.82 -125.88,92.05l-2 0 0 1.4 -43.11 30.58 -4.82 0 0 3.4 -40.44 28.52 -7.45 0 0 5.04c-13.2,9.09 -26.64,17.92 -39.89,26.94l-8.1 0 0 5.49 -15.54 10.5 -0.39 0 0 0.27 -23.19 15.68 -8.81 0 0 5.93 -14.86 10.06 -1.11 0 0 0.77 -23.42 15.22 -8.54 0 0 5.47 -41.03 26.47 -6.94 0 0 4.49 -42.7 27.49 -5.21 0 0 3.34c-15.34,9.7 -30.88,19.07 -46.29,28.64l-1.64 0 0 0.99c-52.16,32.35 -104.86,63.88 -157.91,94.85l-1.92 0 0 1.13 -25.47 14.86 -6.49 0 0 3.82c-25.87,14.9 -51.86,29.53 -77.91,44.11l-1.94 0 0 1.09 -26.86 14.9 -5.14 0 0 2.85 -23.68 13.14 -8.28 0 0 4.63 -20.52 11.36 -11.44 0 0 6.07 -18.8 9.88 -13.16 0 0 6.92 -47.56 25.06 -0.35 0 0 0.18 -30.01 15.81 -1.99 0 0 1.03 -29.18 14.96 -2.76 0 0 1.35 -29.2 14.58 -2.76 0 0 1.37 -29.33 14.62 -2.63 0 0 1.33c-31.73,15.75 -63.57,31.35 -95.55,46.61l-0.35 0 0 0.13c-33.72,16.13 -67.4,32.26 -101.44,47.84l-10.36 0 0 4.62 -25.61 11.37 -6.39 0 0 2.84 -29.43 13.11 -2.49 0 0 1.08 -33.46 14.91 -14.51 0 0 6.42 -21.66 9.57 -10.28 0 0 4.31 -27.93 11.68 -4.03 0 0 1.68 -34.08 14.25 -13.85 0 0 5.81 -24.39 10.2 -7.61 0 0 3.16 -31.45 12.83 -0.49 0 0 0.18 -40.26 15.81 -7.69 0 0 3.02c-67.44,26.59 -135.32,52.32 -203.7,76.87l-4.04 0 0 1.5 -40.73 14.45 -7.22 0 0 2.45 -39.63 13.54 -8.28 0 0 2.85 -38.5 13.14 -9.45 0 0 3.22 -38.28 12.77 -9.65 0 0 3.02 -40.78 12.97 -7.15 0 0 2.27 -43.15 13.68 -4.82 0 0 1.54 -46.9 14.45 -1.03 0 0 0.32c-74.56,22.51 -149.72,43.52 -225.29,63.58l-14.45 0 0 3.9 -45.32 12.09 -18.56 0 0 4.55 -46.84 11.44 -17.08 0 0 4.17c-16.13,3.96 -32.16,8.03 -48.28,11.82l-15.66 0 0 3.82c-18.12,4.21 -36.39,8.06 -54.55,12.13l-25.34 0 0 5.58 -47.3 10.41 -16.6 0 0 3.68c-20.28,4.25 -40.54,8.24 -60.86,12.31l-3.08 0 0 0.6c-25.97,5.25 -52,10.45 -78.08,15.39l-1.81 0 0 0.36c-28.78,5.44 -57.6,10.48 -86.42,15.6l-9.47 0 0 1.62c-27.59,4.8 -55.16,9.84 -82.87,14.37l-28.98 0 0 4.42c-25.59,4.03 -51.31,7.81 -77,11.57l-34.89 0 0 5.25c-27,3.8 -54.1,7.2 -81.16,10.74l-46.68 0 0 5.93c-28.6,3.53 -57.26,6.87 -86,10.06l-25.81 0 0 2.66c-45.58,4.85 -91.3,9.29 -137.1,13.29l-22.73 0 0 1.8c-68.82,5.75 -137.9,10.41 -207.22,14.19l-144.32 0 0 6.14c-76.71,2.63 -153.68,4.21 -230.94,4.21 -97.5,0 -195.62,-2.03 -293.87,-6.06 -16.9,-0.68 -33.6,-1.86 -50.48,-2.67zm13071.87 -7448.35l0 0 0.71 0 3.92 89.56c-1.39,-29.94 -2.95,-59.75 -4.63,-89.56zm-5791.71 1426.35l0 0 -8212.45 -956.92c-0.36,-42.4 -0.36,-85.11 0,-127.39 -1.5,42.36 -2.31,84.82 -2.49,127.39l2.49 0 8212.45 956.92z"/>
  <g style="clip-path:url(#id0)">
   <image x="-121.73" y="8455.51" width="14214.07" height="8539.27" xlink:href="favicon_Images\favicon_ImgID1.png"/>
  </g>
  <path class="fil1" d="M9629.69 19800.4l0 -2.94 -85.35 0c-105.15,-3.4 -209.87,-8.56 -314.13,-15.26l0 -0.73 -11.9 0c-65.42,-4.27 -130.71,-9.26 -195.85,-14.77l0 -1.23 -14.27 0c-102.25,-8.83 -204.08,-19.03 -305.34,-30.99l0 -0.95 -8.36 0c-39.9,-4.74 -79.75,-9.78 -119.5,-14.98l0 -1.01 -7.29 0c-104.6,-13.81 -208.72,-29.31 -312.25,-46.39l0 -1.54 -9.55 0c-28.74,-4.74 -57.7,-8.95 -86.36,-13.99l0 -2 -10.59 0c-109.05,-19.15 -217.22,-40.71 -325,-63.44l0 -0.46 -2.16 0c-47.23,-9.96 -94.63,-19.7 -141.65,-30.36l0 -1.62 -6.82 0c-126.58,-28.78 -251.99,-60.38 -376.73,-93.94l0 -1.92 -7.14 0c-18.91,-5.12 -37.92,-9.78 -56.74,-14.98l0 -1.01 -3.72 0c-36.27,-10.04 -72.14,-20.87 -108.17,-31.29l0 -0.69 -2.34 0c-36.56,-10.59 -73.15,-20.87 -109.51,-31.84l0 -0.08 -0.24 0c-205.26,-62.06 -407.6,-131.11 -607.01,-205.98l0 -1.78 -4.81 0c-41.15,-15.43 -82.2,-31.01 -123.06,-47l0 -0.97 -2.33 0c-25.91,-10.14 -51.72,-20.55 -77.54,-30.93l0 -0.99 -2.47 0c-101.16,-40.63 -201.7,-82.3 -301.16,-126.16l0 -1.68 -3.92 0c-46.94,-20.69 -93.39,-42.36 -139.94,-63.78l0 -0.18 -0.35 0c-233.86,-107.62 -463.08,-223.76 -686.77,-348.74l0 -2.81 -5.12 0 -26.84 -15.27 0 -0.68 -1.18 0c-37.1,-20.93 -73.85,-42.39 -110.65,-63.78l0 -0.18 -0.34 0c-53.48,-31.07 -106.63,-62.73 -159.48,-94.81l0 -1.03 -1.72 0c-26.11,-15.81 -52.3,-31.48 -78.21,-47.57l0 -0.4 -0.66 0 -47.23 -29.37 0 -2.57 -4.1 0c-41.52,-26.09 -82.65,-52.69 -123.77,-79.36l0 -0.55 -0.83 0c-47.97,-31.17 -95.54,-62.83 -142.96,-94.81l0 -1.09 -1.66 0 -46.31 -31.29 0 -0.63 -0.95 0c-15.61,-10.66 -31.44,-20.97 -46.98,-31.73l0 -0.25 -0.42 0c-37.45,-25.92 -74.37,-52.6 -111.43,-78.97l0 -0.94 -1.35 0c-36.98,-26.33 -73.94,-52.68 -110.52,-79.5l0 -0.42 -0.54 0c-21.25,-15.57 -42.24,-31.52 -63.4,-47.27l0 -0.64 -0.85 0c-21.03,-15.67 -42.18,-31.23 -63.04,-47.02l0 -0.91 -1.24 0c-47.93,-36.37 -95.33,-73.39 -142.61,-110.56l0 -1.33 -1.6 0c-53.19,-41.9 -105.88,-84.4 -158.2,-127.33l0 -0.49 -0.63 0c-31.81,-26.15 -63.73,-52.06 -95.23,-78.55l0 -1.36 -1.58 0c-37.08,-31.25 -73.69,-63.19 -110.27,-94.99l0 -0.85 -1.03 0c-48.05,-41.73 -95.55,-83.99 -142.83,-126.66l0 -1.23 -1.3 0c-69.65,-62.97 -138.58,-126.79 -206.43,-191.7l0 -0.04 -0.08 0c-75.64,-72.34 -150.31,-145.63 -223.62,-220.34l0 -3.38 -3.27 0 -12.74 -13.25 0 -2.74 -2.65 0 -13.28 -13.82 0 -2.13 -2.04 0 -13.95 -14.51 0 -1.48 -1.45 0 -14.56 -15.09 0 -0.9 -0.83 0 -15.16 -15.72 0 -0.27 -0.26 0c-64.75,-67.5 -128.63,-135.81 -191.49,-205.11l0 -2.63 -2.39 0 -13.6 -14.76 0 -1.23 -1.09 0c-42.73,-47.44 -84.89,-95.54 -126.73,-143.83 -54.04,-62.28 -107.33,-125.19 -159.8,-188.9l0 -2.84 -2.39 0c-26.1,-31.67 -51.79,-63.65 -77.54,-95.63l0 -0.28 -0.2 0c-87.34,-108.74 -172.69,-219.31 -255.43,-331.8l0 -3.75 -2.73 0c-15.28,-20.75 -30.16,-41.77 -45.26,-62.66l0 -1.26 -0.89 0c-145.73,-201.63 -284.09,-409.05 -414.58,-621.76l0 -1.44 -0.91 0c-15.67,-25.6 -31.54,-51.06 -47,-76.79l0 -3.12 -1.84 0c-15.61,-26.02 -30.75,-52.32 -46.09,-78.51l0 -1.41 -0.81 0c-43.3,-73.7 -85.68,-147.94 -127.07,-222.85l0 -0.87 -0.47 0 -15.5 -27.85 0 -4.13 -2.29 0c-31.81,-58.07 -62.92,-116.59 -93.59,-175.34l0 -0.41 -0.24 0c-38.07,-73.02 -75.32,-146.5 -111.65,-220.6l0 -3.13 -1.55 0 -14.38 -29.13 0 -2.85 -1.43 0c-4.78,-9.88 -9.8,-19.52 -14.58,-29.45l0 -2.49 -1.21 0 -14.78 -31.34 0 -0.64 -0.26 0c-49.73,-104.42 -97.4,-210.04 -143.56,-316.44l0 -3.14 -1.34 0c-15.64,-36.02 -31.41,-72.01 -46.59,-108.26l0 -3.61 -1.48 0c-44.04,-105.16 -85.9,-211.37 -126.32,-318.36l0 -1.23 -0.47 0c-16.03,-42.4 -32.02,-84.79 -47.52,-127.47l0 -0.41 -0.14 0 -15.83 -44.89 0 -3.02 -1.09 0c-38.74,-108.59 -75.78,-218.07 -110.76,-328.36l0 -7.22 -2.37 0 -13.64 -42.75 0 -5.22 -1.54 0c-45.37,-146.12 -87.55,-293.67 -126.27,-442.7l0 -4.71 -1.22 0c-5.18,-19.88 -9.73,-40.04 -14.79,-59.96l0 -3.96 -0.94 0 -15.05 -60.91 0 -3.05 -0.75 0c-5.04,-20.55 -10.27,-41.03 -15.18,-61.65l0 -2.25 -0.55 0c-10.91,-45.8 -21.17,-91.83 -31.45,-137.84l0 -5.99 -1.3 0c-10.36,-46.57 -20.93,-93 -30.64,-139.82l0 -3.99 -0.75 0c-5.35,-25.92 -10.04,-52.11 -15.24,-78.1l0 -1.82 -0.35 0c-23.19,-117.01 -44.51,-234.73 -63.53,-353.22l0 -14.27 -2.41 0c-4.82,-30.3 -9.05,-60.8 -13.58,-91.2l0 -4.7 -0.71 0c-17.87,-120.14 -33.64,-240.94 -47.24,-362.48l0 -21.05 -2.49 0c-4.96,-45.58 -9.13,-91.41 -13.5,-137.17l0 -6.66 -0.61 0c-13.52,-142.23 -23.84,-285.41 -31.35,-429.38l0 -34.02 -1.52 0c-2.65,-52.42 -5.28,-104.85 -6.96,-157.55 205.88,3597.57 3106.32,6452.57 6706.71,6601.82 3600.31,149.12 6727.05,-2456.52 7229.68,-6024.67 147.37,-627.79 147.37,-1281.17 0,-1908.82 -492.35,-2051.9 -2441.27,-3411.43 -4536.85,-3164.68 -2095.68,246.55 -3675.72,2021.42 -3678.19,4131.52 -2.39,-271.73 11.29,-539.95 39.1,-803.99l0.84 0 0 -8.24c4.87,-45.35 10.12,-90.51 15.78,-135.57l0.23 0 0 -1.68c9.43,-74.38 19.95,-148.44 31.67,-222.05l0.32 0 0 -2.17c4.96,-31.31 10.15,-62.52 15.53,-93.69l0.42 0 0 -2.25c18.52,-106.6 39.35,-212.46 62.63,-317.37l1.29 0 0 -5.52c28.38,-127.39 60.5,-253.31 95.68,-378.01l0.2 0 0 -0.63c15.08,-53.33 30.73,-106.32 47.08,-159.13l0.85 0 0 -2.81c56.69,-183.46 120.59,-363.8 191.6,-540.54l0.18 0 0 -0.46c30.2,-75.11 61.71,-149.48 94.4,-223.29l1.44 0 0 -3.16c25.76,-57.93 52.3,-115.47 79.5,-172.59l0.44 0 0 -0.85 14.88 -31.13 1.11 0 0 -2.21 14.19 -29.71 1.78 0 0 -3.68 13.75 -28.3 2.24 0 0 -4.31c25.93,-52.24 52.49,-104.04 79.69,-155.51l0.2 0 0 -0.4c25.42,-48.11 51.35,-96 77.85,-143.42l2.04 0 0 -3.53c50.62,-90.61 103.06,-180.07 157.55,-268.12l2.25 0 0 -3.68c46.07,-74.37 93.89,-147.56 142.67,-220.04l1.16 0 0 -1.72c10.3,-15.42 20.46,-30.9 30.94,-46.21l1.02 0 0 -1.55c36.53,-53.3 73.81,-106.04 111.72,-158.26l0.14 0 0 -0.19c15.53,-21.43 31.46,-42.54 47.22,-63.73l0.73 0 0 -1.01c15.63,-21.01 31.07,-42.08 46.94,-62.91l0.99 0 0 -1.3c36.6,-48.03 73.88,-95.49 111.65,-142.51l0.2 0 0 -0.24c25.75,-32.12 51.73,-64.04 78.07,-95.66l1.82 0 0 -2.22c26.27,-31.52 53.05,-62.61 79.85,-93.68l0.08 0 0 -0.08c41.85,-48.49 84.24,-96.4 127.35,-143.74l0.45 0 0 -0.49 13.94 -15.46 2.07 0 0 -2.35c137.02,-149.27 280.79,-292.17 430.2,-429.1l1.26 0 0 -1.19c83.21,-76.2 168.2,-150.39 255.01,-222.54l0.72 0 0 -0.55c275.62,-229.02 569.1,-437.45 878.21,-622.71l0.63 0 0 -0.35c73.21,-43.86 147.39,-86.26 222.32,-127.47l1.42 0 0 -0.77c201.39,-110.77 408.87,-211.91 621.74,-302.87l1.48 0 0 -0.63c105.23,-44.9 211.79,-87.38 319.59,-127.21l43.31 -15.99 4.62 0 0 -1.62c109.11,-39.45 219.61,-76.11 331.23,-110.21l4.37 0 0 -1.32c53.01,-16.17 106.23,-31.71 159.78,-46.61l0.02 0c19.68,-5.48 39.53,-10.65 59.24,-15.99l4.7 0 0 -1.27c130.96,-35.2 263.31,-66.9 397.2,-94.63l2.28 0 0 -0.5c26.34,-5.43 52.91,-10.31 79.37,-15.49l0.52 0 0 -0.08c168.34,-32.71 338.83,-59.26 511.29,-79.77l0.08 0c48.8,-5.8 97.72,-11.19 146.85,-15.99l12.99 0 0 -1.19c59.79,-5.75 119.89,-10.55 180.14,-14.8l11.6 0 0 -0.78c96.14,-6.66 192.85,-11.6 290.14,-14.27 21.6,-0.59 43.05,-0.59 64.63,-0.94l274.16 0c115.97,2.35 231.26,7.61 345.82,15.63l0 0.36 5.67 0c56.91,3.99 113.59,8.73 170.12,14.09l0 1.9 22.16 0c89,8.73 177.45,19.66 265.49,31.7l0 0.24 1.73 0c36.79,5.02 73.53,10.14 110.1,15.75l0 0.24 1.32 0c90.72,13.89 180.85,29.61 270.39,46.96l0 0.95 5.02 0c25.01,4.9 49.97,9.98 74.89,15.14l0 0.85 4.09 0c193.31,40 383.85,88.01 571.18,143.65l0 0.18 0.69 0c15.74,4.66 31.57,9.09 47.24,13.86l0 2.13 6.7 0c127.19,38.9 252.74,81.67 376.85,127.55l0 0.27 0.69 0c107.5,39.77 213.84,82.13 318.88,126.94l0 0.9 2.09 0c36.72,15.68 73.39,31.57 109.82,47.84l0 0.14 0.29 0c253.08,113.33 498.37,241.19 734.74,382.67l0 0.81 1.32 0c26.31,15.75 52.46,31.84 78.57,47.97l0.06 0c59.1,36.47 117.8,73.57 175.75,111.7l0 0.13 0.24 0c108.65,71.57 214.97,146.33 319.35,223.69l0 0.06 0.04 0c21.38,15.85 42.67,31.74 63.86,47.83l0 0.08 0.14 0c114.66,87.03 226.45,177.61 335.48,271.38l0 0.31 0.37 0c48.41,41.69 96.22,84.05 143.44,126.98l0 0.87 0.95 0c167.01,151.83 326.7,311.73 478.46,479.01l0 0.37 0.37 0c37.67,41.53 74.83,83.53 111.52,125.97l0 1.86 1.6 0c31.8,36.82 63.21,74.02 94.24,111.47l0 0.42 0.37 0c43.19,52.18 85.75,104.95 127.45,158.4l0 1.4 1.09 0c76.73,98.35 151.16,198.6 222.65,301.1l0 2.5 1.74 0c54.36,77.95 106.84,157.37 158.07,237.63l0 2.08 1.36 0c26.64,41.8 52.75,83.94 78.53,126.34l0 1.5 0.93 0c37.81,62.22 74.99,124.98 110.94,188.48l0 3.3 1.92 0c90.98,160.99 175.45,326.11 253.76,494.85l0 0.53 0.24 0c21.68,46.75 42.97,93.77 63.69,141.11l0 2.7 1.18 0c38.64,88.47 75.56,177.89 110.65,268.26l0 3.4 1.38 0c78.07,201.59 146.84,407.92 206.41,618.28l0 4.94 1.46 0c64.04,226.85 116.99,458.46 158.28,694.32l0 8.83 1.66 0c5.12,29.45 9.59,59.16 14.35,88.75l0 7.11 1.13 0c11.33,71.02 21.6,142.41 30.83,214.12l0 9.61 1.29 0c5.36,42.04 10.04,84.3 14.68,126.59l0 1.23 0.12 0c5.99,54.81 11.11,109.79 15.87,164.98l0 10.83 0.89 0c6.25,73.92 11.15,148.3 15.09,222.95l0 0.77 0.05 0c0.74,13.58 1.7,27.08 2.38,40.68 0,60.01 0,120 0,177.38 0,57.43 7.49,122.44 7.49,187.45 0,67.44 0,134.86 0,202.34 0,67.4 0,119.99 0,177.43 -2.04,63.37 -5.16,126.44 -8.38,189.49l-1.54 0 0 34.87c-4.31,79.2 -9.61,158.1 -15.74,236.79l-0.24 0 0 2.98c-4.52,57.79 -9.92,115.33 -15.45,172.81l-0.54 0 0 5.61c-4.42,46.17 -8.87,92.29 -13.99,138.22l-1.98 0 0 16.52c-13.2,117.69 -28.58,234.64 -45.85,351.02l-2.12 0 0 14.54c-4.88,32.48 -9.68,64.91 -14.82,97.31l-1.09 0 0 6.32c-4.8,29.95 -10.12,59.71 -15.18,89.56l-0.83 0 0 4.72c-14.35,84.03 -29.72,167.65 -46.21,250.94l-1.74 0 0 9.02c-4.66,23.6 -8.97,47.34 -13.83,70.9l-2.14 0 0 10.95c-4.8,23.1 -10.18,45.93 -15.18,68.96l-0.79 0 0 3.79c-28.64,132.86 -59.39,264.96 -93.29,395.72l-2.63 0 0 9.83c-4.68,18.12 -9.92,36.01 -14.72,54.09l-1.27 0 0 4.57c-29.67,111.12 -61.17,221.47 -94.58,330.99l-1.24 0 0 4.17c-48.94,160.18 -101.58,318.68 -158.3,475.22l-1.52 0 0 4.41 -15.74 43.56 -0.25 0 0 0.69c-9.79,26.55 -20.17,52.81 -30.13,79.22l-1.8 0 0 4.76c-25.79,68.04 -52.2,135.71 -79.43,202.97l-0.5 0 0 1.23c-25.81,63.82 -52.14,127.39 -79.2,190.52l-0.69 0 0 1.6c-45.95,106.99 -93.71,213.03 -143.32,318.02l-0.49 0 0 1.15 -14.39 30.79 -1.6 0 0 3.54 -13.42 28.44 -2.59 0 0 5.22c-51.01,105.94 -104.42,210.58 -159.05,314.37l-0.71 0 0 1.4c-30.8,58.47 -62.17,116.6 -94.09,174.39l-1.81 0 0 3.3 -15.9 28.64 -0.1 0 0 0.14c-66.15,118.67 -134.66,235.86 -205.51,351.47l-2.2 0 0 3.57c-15.63,25.5 -31.39,50.92 -47.3,76.28l-0.63 0 0 1.05c-46.9,74.87 -94.6,149.21 -143.42,222.67l-0.41 0 0 0.64 -31.49 47.33 -0.47 0 0 0.73c-46.89,69.68 -94.8,138.62 -143.4,207.01l-0.43 0 0 0.63c-41.81,58.84 -84.17,117.29 -127.19,175.12l-0.66 0 0 0.87c-15.77,21.15 -31.94,42 -47.83,63.05l-0.1 0 0 0.1c-57.02,75.37 -115.09,149.98 -174.23,223.62l-1.54 0 0 1.96c-20.93,26.05 -41.69,52.14 -62.83,77.96l-1.09 0 0 1.26c-26.09,31.8 -52.6,63.19 -79.04,94.64l-0.89 0 0 1.03c-67.74,80.54 -136.38,160.35 -206.63,238.68l-1.11 0 0 1.19 -13.56 14.76 -2.41 0 0 2.63c-57.61,63.86 -116.26,126.78 -175.45,189.15l-0.32 0 0 0.32 -15.02 15.64 -0.95 0 0 0.98 -14.43 15.01 -1.56 0 0 1.62c-103.99,108.41 -210.4,214.45 -319.17,318l-0.46 0 0 0.45c-68.03,64.78 -136.97,128.5 -206.82,191.29l-0.93 0 0 0.81c-77.93,70.07 -156.68,139.35 -236.81,206.93l-2.84 0 0 2.49c-31.05,26.13 -62.62,51.64 -93.95,77.42l-1.95 0 0 1.58c-78.55,64.55 -157.97,128 -238.51,190.16l-1.23 0 0 0.95 -61.35 47.02 -2.57 0 0 1.9c-20.4,15.5 -41.09,30.68 -61.73,46.03l-2.15 0 0 1.62c-94.16,70.21 -189.25,139.25 -285.93,206.12l-1.73 0 0 1.16c-15.09,10.42 -30.5,20.48 -45.66,30.82l-2.28 0 0 1.54c-78.98,53.94 -158.89,106.57 -239.47,158.26l-0.24 0 0 0.14c-41.8,26.82 -83.55,53.54 -125.85,79.73l-1.95 0 0 1.17c-78.63,48.7 -158.12,96.12 -238.13,142.64l-1.63 0 0 0.91c-36.34,21.15 -72.67,42.36 -109.38,63.05l-2.43 0 0 1.41c-47.3,26.68 -95.03,52.55 -142.82,78.45l-1.01 0 0 0.55c-187.61,101.69 -378.92,197.46 -573.59,287.09l-1.68 0 0 0.77c-46.11,21.25 -92.15,42.68 -138.63,63.19l-5.22 0 0 2.23c-125.18,55.21 -251.99,107.45 -379.87,157.53l-3.64 0 0 1.47c-26.19,10.24 -52.44,20.51 -78.68,30.51l-1.25 0 0 0.46c-42.44,16.19 -85.11,31.84 -127.8,47.48 -208.7,76.23 -420.69,145.45 -635.65,207.73l-3.58 0 0 1.05c-35.64,10.33 -71.06,21.01 -106.89,30.93l-4.98 0 0 1.32c-79.08,21.88 -158.58,42.68 -238.43,62.6l-1.25 0 0 0.32c-66.25,16.54 -132.82,32.43 -199.63,47.61l-8.08 0 0 1.94c-46.65,10.55 -93.55,20.16 -140.41,30.04l-3.44 0 0 0.71c-79.16,16.72 -158.66,32.4 -238.49,47.2l-1.21 0 0 0.24c-28.06,5.2 -55.91,10.83 -84.02,15.75l-11.88 0 0 2.18c-28.28,4.94 -56.75,9.11 -85.11,13.81l-10.73 0 0 1.74c-103.16,17.02 -206.87,32.38 -311.03,46.19l-8.6 0 0 1.19c-39.31,5.16 -78.74,10.1 -118.19,14.8l-9.67 0 0 1.09c-100.86,11.96 -202.28,21.98 -304.07,30.85l-15.53 0 0 1.37c-64.7,5.51 -129.55,10.32 -194.61,14.63l-13.15 0 0 0.81c-103.84,6.79 -208.16,11.64 -312.86,15.18l-86.61 0 0 2.98c-79.44,2.09 -159.13,2.94 -239.06,2.94 -80.37,0 -160.44,-1.08 -240.33,-2.98z"/>
 </g>
</svg>
