<svg xmlns="http://www.w3.org/2000/svg" viewBox="0 0 1200 630" width="1200" height="630" aria-hidden="true"><rect width="1200" height="630" fill="#f8dce8"/><circle cx="930" cy="130" r="90" fill="#ff4d8d"/><circle cx="1085" cy="545" r="80" fill="none" stroke="#344bd8" stroke-width="36"/><circle cx="730" cy="590" r="16" fill="#ffffff"/><polygon points="800,60 808.96,83.04 832,92 808.96,100.96 800,124 791.04,100.96 768,92 791.04,83.04" fill="#344bd8"/><polygon points="210,262 460,120 710,262" fill="#344bd8"/><rect x="230" y="262" width="460" height="30" rx="8" fill="#344bd8"/><circle cx="460" cy="208" r="28" fill="#ffffff"/><rect x="266" y="304" width="62" height="184" rx="12" fill="#ffffff"/><rect x="366" y="304" width="62" height="184" rx="12" fill="#ffffff"/><rect x="466" y="304" width="62" height="184" rx="12" fill="#ffffff"/><rect x="566" y="304" width="62" height="184" rx="12" fill="#ffffff"/><rect x="210" y="488" width="500" height="34" rx="10" fill="#344bd8"/><rect x="182" y="522" width="556" height="30" rx="10" fill="#181923"/><rect x="760" y="290" width="260" height="60" rx="30" fill="#ffffff"/><circle cx="792" cy="320" r="18" fill="#344bd8"/><polyline points="785.6,320 790.4,325.6 799.2,314.4" fill="none" stroke="#ffffff" stroke-width="4" stroke-linecap="round" stroke-linejoin="round"/><rect x="826" y="312" width="150" height="16" rx="8" fill="#e7e3f4"/><rect x="760" y="374" width="260" height="60" rx="30" fill="#ffffff"/><circle cx="792" cy="404" r="18" fill="#ff4d8d"/><polyline points="785.6,404 790.4,409.6 799.2,398.4" fill="none" stroke="#ffffff" stroke-width="4" stroke-linecap="round" stroke-linejoin="round"/><rect x="826" y="396" width="110" height="16" rx="8" fill="#e7e3f4"/><rect x="760" y="458" width="260" height="60" rx="30" fill="#ffffff"/><circle cx="792" cy="488" r="18" fill="#181923"/><polyline points="785.6,488 790.4,493.6 799.2,482.4" fill="none" stroke="#ffffff" stroke-width="4" stroke-linecap="round" stroke-linejoin="round"/><rect x="826" y="480" width="70" height="16" rx="8" fill="#e7e3f4"/></svg>
