<svg xmlns="http://www.w3.org/2000/svg" viewBox="0 0 1200 630" width="1200" height="630" aria-hidden="true"><rect width="1200" height="630" fill="#eceaff"/><rect x="190" y="70" width="380" height="490" rx="40" fill="#ffffff"/><circle cx="290" cy="168" r="46" fill="#344bd8"/><polyline points="278.8,168 287.2,177.8 302.6,158.2" fill="none" stroke="#ffffff" stroke-width="7" stroke-linecap="round" stroke-linejoin="round"/><rect x="354" y="148" width="176" height="24" rx="12" fill="#344bd8"/><rect x="354" y="184" width="136" height="14" rx="7" fill="#eceaff"/><rect x="230" y="264" width="300" height="38" rx="19" fill="#eceaff"/><rect x="230" y="264" width="280" height="38" rx="19" fill="#344bd8"/><rect x="230" y="330" width="300" height="38" rx="19" fill="#eceaff"/><rect x="230" y="330" width="230" height="38" rx="19" fill="#344bd8"/><rect x="230" y="396" width="300" height="38" rx="19" fill="#eceaff"/><rect x="230" y="396" width="260" height="38" rx="19" fill="#344bd8"/><rect x="230" y="468" width="300" height="46" rx="23" fill="#344bd8"/><rect x="630" y="70" width="380" height="490" rx="40" fill="#ffffff"/><circle cx="910" cy="168" r="46" fill="#ff4d8d"/><polyline points="898.8,168 907.2,177.8 922.6,158.2" fill="none" stroke="#181923" stroke-width="7" stroke-linecap="round" stroke-linejoin="round"/><rect x="670" y="148" width="176" height="24" rx="12" fill="#ff4d8d"/><rect x="670" y="184" width="136" height="14" rx="7" fill="#eceaff"/><rect x="670" y="264" width="300" height="38" rx="19" fill="#eceaff"/><rect x="670" y="264" width="230" height="38" rx="19" fill="#ff4d8d"/><rect x="670" y="330" width="300" height="38" rx="19" fill="#eceaff"/><rect x="670" y="330" width="280" height="38" rx="19" fill="#ff4d8d"/><rect x="670" y="396" width="300" height="38" rx="19" fill="#eceaff"/><rect x="670" y="396" width="200" height="38" rx="19" fill="#ff4d8d"/><rect x="670" y="468" width="300" height="46" rx="23" fill="#ff4d8d"/><circle cx="600" cy="313" r="64" fill="#5b73f0"/><polygon points="552,274 552,352 600,313" fill="#ffffff"/><polygon points="648,274 648,352 600,313" fill="#ffffff"/></svg>
