<svg xmlns="http://www.w3.org/2000/svg" viewBox="0 0 1200 630" width="1200" height="630" aria-hidden="true"><rect width="1200" height="630" fill="#e9edff"/><circle cx="1010" cy="150" r="84" fill="#ff4d8d"/><circle cx="1085" cy="520" r="70" fill="none" stroke="#344bd8" stroke-width="30"/><polygon points="790,60 798.96,83.04 822,92 798.96,100.96 790,124 781.04,100.96 758,92 781.04,83.04" fill="#344bd8"/><circle cx="120" cy="560" r="16" fill="#ff4d8d"/><rect x="140" y="90" width="580" height="380" rx="40" fill="#181923"/><rect x="196" y="148" width="400" height="20" rx="10" fill="#c9cde6"/><rect x="196" y="206" width="320" height="20" rx="10" fill="#c9cde6"/><rect x="196" y="264" width="360" height="20" rx="10" fill="#c9cde6"/><circle cx="590" cy="372" r="44" fill="none" stroke="#ff4d8d" stroke-width="9"/><polyline points="578,372 587,382.5 603.5,361.5" fill="none" stroke="#ff4d8d" stroke-width="9" stroke-linecap="round" stroke-linejoin="round"/><rect x="196" y="330" width="250" height="20" rx="10" fill="#4a60e2"/><rect x="196" y="372" width="190" height="20" rx="10" fill="#4a60e2"/><rect x="120" y="470" width="620" height="30" rx="15" fill="#344bd8"/><rect x="780" y="396" width="300" height="56" rx="16" fill="#ff4d8d"/><rect x="802" y="416" width="210" height="16" rx="8" fill="#ffffff"/><rect x="810" y="330" width="250" height="56" rx="16" fill="#ffffff"/><rect x="832" y="350" width="160" height="16" rx="8" fill="#dfe2f7"/><rect x="840" y="264" width="210" height="56" rx="16" fill="#344bd8"/><rect x="862" y="284" width="120" height="16" rx="8" fill="#ffffff"/></svg>
